<svg id="Layer_1" data-name="Layer 1" xmlns="http://www.w3.org/2000/svg" viewBox="0 0 65.58 78.51"><defs><style>.cls-1{fill:#fff;}.cls-2{fill:#df9c58;}.cls-3{fill:#89b480;}</style></defs><title>logo-destineja-header</title><path class="cls-1" d="M14.11,8.4a20.77,20.77,0,0,0-4.06-.72c-4.42,0-4.89,3.12-4.89,6.19s.18,6.41,4.89,6.41a25.18,25.18,0,0,0,4.06-.51ZM17,21.84c0,.4-4.06,1.2-7.46,1.2C5.67,23,2.3,21.12,2.3,13.69,2.3,7.14,6.07,4.93,9,4.93a14,14,0,0,1,5.11.83V.54A.53.53,0,0,1,14.66,0h1.77A.53.53,0,0,1,17,.54Z"/><path class="cls-1" d="M33.6,12.79c0-4.85-3.19-5.11-4.35-5.11s-4.42.25-4.42,5.11Zm1,7.5.29,1.92a.44.44,0,0,1-.29.4A19.21,19.21,0,0,1,30,23c-4.53,0-8-2-8-8V12.35c0-1.88.8-7.43,7.1-7.43,6.85,0,7.39,5.72,7.39,7.64V15a.53.53,0,0,1-.54.54h-11V16c.25,4,2.43,4.31,6.59,4.31A18,18,0,0,0,34.18,20c.22,0,.4.07.44.29"/><path class="cls-1" d="M17,47.13a.53.53,0,0,1-.54.54H14.66a.53.53,0,0,1-.54-.54V30.54a.53.53,0,0,1,.54-.54h1.77a.53.53,0,0,1,.54.54ZM13.79,26.41c0-1.09.76-1.56,1.74-1.56a1.56,1.56,0,1,1,0,3.12c-1,0-1.74-.47-1.74-1.56"/><path class="cls-1" d="M25.2,47.13a.53.53,0,0,1-.54.54H22.88a.53.53,0,0,1-.54-.54V31c0-.58,5.14-1.23,7.21-1.23,5,0,7.54,2.14,7.54,8v9.35a.53.53,0,0,1-.54.54H34.76a.53.53,0,0,1-.54-.54V36.88c0-3.51-2.61-4.35-5-4.35A26.56,26.56,0,0,0,25.2,33Z"/><path class="cls-2" d="M33.89,51.26c0-1.09.76-1.56,1.74-1.56a1.56,1.56,0,1,1,0,3.12c-1,0-1.74-.47-1.74-1.56"/><path class="cls-2" d="M36.54,54.85H34.76a.53.53,0,0,0-.54.54V72c0,1,0,3.1-2.08,3.64a.54.54,0,0,0-.39.53v1.79a.55.55,0,0,0,.61.54,4.88,4.88,0,0,0,4.72-5.12v-18a.53.53,0,0,0-.54-.54"/><path class="cls-1" d="M44.58,37.64c0-4.85,3.19-5.11,4.42-5.11s4.35.25,4.35,5.11Zm4.24-7.86c-6.3,0-7.1,5.54-7.1,7.43v2.64c0,5.76,3.19,7.87,7.45,8a.54.54,0,0,0,.56-.55v-1.7a.55.55,0,0,0-.52-.54c-2.86-.17-4.38-.95-4.59-4.27v-.43h11a.53.53,0,0,0,.54-.54V37.42c0-1.92-.54-7.64-7.39-7.64"/><path class="cls-1" d="M8.79,45.1c-.15,0-.33,0-.54,0-2.94,0-3.33-2-3.33-3.8V32.75H8.39a.53.53,0,0,0,.54-.54V30.54A.53.53,0,0,0,8.39,30H4.91V25.4a.53.53,0,0,0-.54-.54H2.56A.53.53,0,0,0,2,25.4V30H.54a.54.54,0,0,0-.54.54v1.67a.54.54,0,0,0,.54.54H2v9.13c0,4.64,2.35,6,5.32,6a9.74,9.74,0,0,0,1.41-.07.64.64,0,0,0,.54-.58V45.65a.5.5,0,0,0-.51-.54"/><path class="cls-1" d="M43.67,9.89c0-.58.38-2.1,3.59-2.3a.54.54,0,0,0,.54-.54V5.47a.54.54,0,0,0-.54-.54c-3,0-6.48,1.2-6.48,4.82,0,6.45,10.69,4.35,10.69,8.33,0,1.81-1.3,2.32-4.46,2.32a10.42,10.42,0,0,1-5.11-1.23.45.45,0,0,0-.18-.07.4.4,0,0,0-.4.25l-.47,1.2a1.52,1.52,0,0,0-.11.43.56.56,0,0,0,.29.54A11.49,11.49,0,0,0,47.29,23c5.54,0,7.06-2.21,7.06-5,0-6-10.69-4.56-10.69-8.15"/><path class="cls-3" d="M59.13,4.93h-8a.54.54,0,0,0-.54.54V7.05a.54.54,0,0,0,.54.54h8a3.71,3.71,0,0,1,3.69,3.69V41.44c0,2-.83,3.69-2.88,3.69H57.3l.72-.72A1,1,0,0,0,56.58,43L53.45,46.1a.54.54,0,0,0,0,.77L56.58,50A1,1,0,1,0,58,48.56l-.68-.68H60c3.56,0,5.63-2.89,5.63-6.45V11.37a6.45,6.45,0,0,0-6.45-6.45"/><path class="cls-3" d="M28.46,75.76H20.61A3.7,3.7,0,0,1,16.92,72V54.45l.7.7a1,1,0,0,0,1.43-1.43l-3.12-3.12a.54.54,0,0,0-.77,0L12,53.71a1,1,0,1,0,1.43,1.43l.7-.7V72a6.46,6.46,0,0,0,6.44,6.47h7.85A.54.54,0,0,0,29,78V76.3a.54.54,0,0,0-.54-.54"/><path class="cls-2" d="M52.51,64.74h-3.4c-1.85,0-4.31,0-4.31,2.68,0,2.32,1.67,2.61,3.91,2.61,1.67,0,3.8-.51,3.8-1.81Zm-8.95-7.25-.29-2a.44.44,0,0,1,.29-.4,23.16,23.16,0,0,1,4.67-.43c4.38,0,7.17,2.25,7.17,6.77V70.1c0,1.34-3.3,2.64-6.74,2.64s-6.77-1-6.77-5.29S44.58,62,47.77,62h4.74V61.7c0-3.19-2-4.31-5.22-4.31a20,20,0,0,0-3.3.4c-.22,0-.4-.07-.44-.29"/><path class="cls-2" d="M52,49.71a.53.53,0,0,1,.63.44l.24,1.34a.53.53,0,0,1-.44.63l-6.28,1.13a.53.53,0,0,1-.63-.44l-.24-1.34a.53.53,0,0,1,.44-.63Z"/></svg>